<!--?xml version="1.0" standalone="no"?-->
              <svg id="sw-js-blob-svg" viewBox="0 0 100 100" xmlns="http://www.w3.org/2000/svg" version="1.1">
                    <defs> 
                        <linearGradient id="sw-gradient" x1="0" x2="1" y1="1" y2="0">
                            <stop id="stop1" stop-color="rgba(38, 38, 38, 1)" offset="0%"></stop>
                            <stop id="stop2" stop-color="rgba(23, 23, 23, 1)" offset="100%"></stop>
                        </linearGradient>
                    </defs>
                <path fill="url(#sw-gradient)" d="M24.8,-27.8C32.1,-23.4,38.1,-15.6,38.9,-7.4C39.7,0.7,35.2,9.3,30.5,17.8C25.8,26.3,20.8,34.9,13,39.3C5.2,43.7,-5.5,43.9,-15,40.7C-24.5,37.4,-32.9,30.6,-37.8,21.9C-42.6,13.3,-43.9,2.6,-41.2,-6.3C-38.5,-15.3,-31.8,-22.6,-24.3,-27C-16.7,-31.4,-8.4,-32.8,0.2,-33C8.7,-33.2,17.4,-32.2,24.8,-27.8Z" width="100%" height="100%" transform="translate(50 50)" style="transition: all 0.3s ease 0s;" stroke-width="0" stroke="url(#sw-gradient)"></path>
              </svg>