<?xml version="1.0" encoding="utf-8"?><!-- Uploaded to: SVG Repo, www.svgrepo.com, Generator: SVG Repo Mixer Tools -->
<svg fill="#000000" width="800px" height="800px" viewBox="0 0 24 24" id="black-board" data-name="Flat Line" xmlns="http://www.w3.org/2000/svg" class="icon flat-line"><rect id="secondary" x="3" y="4" width="18" height="12" rx="1" style="fill: rgb(44, 169, 188); stroke-width: 2;"></rect><path id="primary" d="M18,21l-.67-4-.17-1m-2-12L15,3M6.84,16l-.17,1L6,21M9,3,8.83,4M12,17v3m8-4H4a1,1,0,0,1-1-1V5A1,1,0,0,1,4,4H20a1,1,0,0,1,1,1V15A1,1,0,0,1,20,16Z" style="fill: none; stroke: rgb(0, 0, 0); stroke-linecap: round; stroke-linejoin: round; stroke-width: 2;"></path></svg>